/* XPM */
static char *graphic[] = {
/* width height num_colors chars_per_pixel */
"16 16 58 1", 
/* colors */
"  c #0089E0",
". c #0089E0",
"X c #008BE2",
"o c None",
"O c #008CE2",
"+ c #8AC9F1",
"@ c #6ABBED",
"# c #008BE3",
"$ c None",
"% c #0087E0",
"& c #6ABBEE",
"* c #008CE1",
"= c #0C90E3",
"- c #008CE3",
"; c #008CE2",
": c #008CE2",
"> c #ADD8F4",
", c #D9EDF9",
"< c #0189E0",
"1 c #4DAEEA",
"2 c #008AE3",
"3 c #008CE3",
"4 c #5BB4EC",
"5 c #008AE1",
"6 c #008AE2",
"7 c None",
"8 c #008CE1",
"9 c #028BE1",
"0 c #008CE1",
"q c #40A8E9",
"w c #008AE1",
"e c #008CE3",
"r c #008AE1",
"t c #008AE1",
"y c #FFFFFF",
"u c #008CE3",
"i c #008BE2",
"p c #259CE6",
"a c #008AE2",
"s c #008BE3",
"d c #008AE3",
"f c #33A2E7",
"g c #008BE1",
"h c #038BE1",
"j c #ADD9F5",
"k c #008BE2",
"l c None",
"z c #1896E4",
"x c #018AE1",
"c c #C2E2F7",
"v c #9BD1F3",
"b c #018CE3",
"n c #79C2EF",
"m c #028CE0",
"M c #008BE3",
"N c #008BE0",
"B c #028AE0",
"V c None",
/* pixels */
"$:6M33333333M5go",
"*uwuuuuuuuuurwui",
"3u80N0mB<<..Nduk",
"Mu0XXXtXXXXXXNu;",
"3u0XX+y+XX=yyp#k",
"3uNXX,y1XXqyyXuk",
"3X.XzyyzXXnyvXuk",
"3uaXqyyXXXcy@Xuk",
"3b%XnyyyyyyyfXuk",
"3XNacy4XXfyyXX#k",
"3u0=yyfXX@yjXXuk",
"3u0fyyXXXjynXNuk",
"MuN&y>tXXyyq.wu;",
"3ud w9hhhxwwweuk",
"-uwruuuuuuuurwus",
"lO2;kkkkkkkk;2V7"
};
