/* XPM */
static char *graphic[] = {
/* width height num_colors chars_per_pixel */
"32 32 58 1", 
/* colors */
"  c None",
". c None",
"X c #008BE2",
"o c #8AC9F1",
"O c #008CE3",
"+ c #008CE3",
"@ c #008BE3",
"# c #008CE3",
"$ c #008CE3",
"% c #6ABBEE",
"& c #33A3E8",
"* c #C2E3F7",
"= c #1897E5",
"- c #008CE3",
"; c #D9EDFA",
": c #008CE3",
"> c #4DAEEB",
", c #008CE3",
"< c #008CE3",
"1 c #008CE3",
"2 c #008CE3",
"3 c #40A8EA",
"4 c #008CE3",
"5 c #008CE3",
"6 c #008CE3",
"7 c #008CE3",
"8 c #FFFFFF",
"9 c #8ACAF1",
"0 c #008CE3",
"q c #008CE3",
"w c #008CE3",
"e c None",
"r c None",
"t c #259CE6",
"y c None",
"u c #259CE7",
"i c None",
"p c None",
"a c #0C91E4",
"s c None",
"d c #ADD9F5",
"f c None",
"g c None",
"h c None",
"j c None",
"k c #C2E2F7",
"l c #9BD1F3",
"z c #018CE3",
"x c None",
"c c None",
"v c #5BB5EC",
"b c None",
"n c None",
"m c #79C2EF",
"M c None",
"N c None",
"B c None",
"V c None",
/* pixels */
"e fV$++++++++++++++++++++++#Bs e",
" N7wqwwwwwwwwwwwwwwwwwwwwwq0w2x ",
"j4w66666666666666666666666665w,r",
".w6wqwwwwwwwwwwwwwwwwwwwwwwqqq6j",
"Ow7qwwwwwwwwwwwwwwwwwwwwwwwwqqwb",
"+w6wwwwwwwwwwwwwwwwwwwwwwwwwq0wb",
"+w6wwwwwwwd8888wwwwwwu8888%wq0wb",
"+w6wwwwwww8888dwwzwwwv88883wq0wb",
"+w6wwwwwwt8888%wwXwww98888awq0wb",
"+w6wwwwwwv8888&wwwwww;888kwwq0wb",
"+w6wwwwwwl8888awwwww=88889wwq0wb",
"+w6wwwwww;888*wwwwww38888>@wq0wb",
"+w6wwwww=8888mwwwwwwm8888=wwq0wb",
"+w6wwwww>8888888888888888wwwq0wb",
"+w6wwXwwm888888888888888lwwwq0wb",
"+w6wwwww*888888888888888vwwwq0wb",
"+w6wwwwa8888lwwwwww%8888&wwwq0wb",
"+w6wwww&8888vwwwwwwd8888wwwwq0wb",
"+w6wwww%8888uwwwwww8888dwwwwq0wb",
"+w6wwwwd8888wwwwwwu8888mwXwwq0wb",
"+w6wwww8888dwwwwwwv88883wwwwq0wb",
"+w6wwwu8888%wwwwww98888aXwwwq0wb",
"+w6wwwv88883wwwwww;888;Xwwwwq0wb",
"+w6wwwl8888awwwwwa8888owwwwwq0wb",
"+w6www;888*wwwwww38888>wwwwwq0wb",
"+w6wwwwwwwwwwwwwwwwwwwwwwwwwq0wb",
"+w6qwwwwwwwwwwwwwwwwwwwwwwwwq0wb",
"Ow7qwwwwwwwwwwwwwwwwwwwwwwwwqqwb",
"Mw5qqqqqqqqqqqqqqqqqqqqqqqqqq05h",
"i1w000000000000000000000000q7w: ",
" c<wqqwwwwwwwwwwwwwwwwwwwwqw6-p ",
"e yxnbbbbbbbbbbbbbbbbbbbbbbng e "
};
