/* XPM */
static char *graphic[] = {
/* width height num_colors chars_per_pixel */
"64 64 88 1", 
/* colors */
"  c None",
". c None",
"X c None",
"o c None",
"O c None",
"+ c #008BE2",
"@ c #6ABBED",
"# c #008CE3",
"$ c #6ABBEE",
"% c #33A3E8",
"& c #008CE3",
"* c #008CE3",
"= c #C2E3F7",
"- c #008CE3",
"; c #1897E5",
": c #008CE3",
"> c #D9EDFA",
", c #008CE3",
"< c #008CE3",
"1 c #008CE3",
"2 c #4DAEEB",
"3 c #008CE3",
"4 c #34A3E8",
"5 c #008CE3",
"6 c #008CE3",
"7 c #008CE3",
"8 c #008CE3",
"9 c #008CE3",
"0 c #008CE3",
"q c #008CE3",
"w c #008CE3",
"e c #40A8E9",
"r c #008CE3",
"t c #008CE3",
"y c #008CE3",
"u c #40A8EA",
"i c #008CE3",
"p c #008CE3",
"a c #008CE3",
"s c #008CE3",
"d c #008CE3",
"f c #008CE3",
"g c #FFFFFF",
"h c #8ACAF1",
"j c #008CE3",
"k c #008CE3",
"l c #008CE3",
"z c None",
"x c None",
"c c None",
"v c None",
"b c #008AE2",
"n c None",
"m c None",
"M c None",
"N c None",
"B c None",
"V c None",
"C c None",
"Z c #259CE7",
"A c None",
"S c None",
"D c None",
"F c None",
"G c None",
"H c #0C91E4",
"J c #ADD9F5",
"K c None",
"L c None",
"P c #9BD1F3",
"I c None",
"U c None",
"Y c #018CE3",
"T c None",
"R c None",
"E c #5BB5EC",
"W c #79C2EF",
"Q c None",
"! c None",
"~ c None",
"^ c None",
"/ c None",
"( c None",
") c None",
"_ c None",
"` c None",
"' c None",
"] c #028CE3",
/* pixels */
"   c   mACCCCCCCCCCCCCCCCCCCCCCCCCCCCCCCCCCCCCCCCCCCCCCCv  zz   ",
"  x S',8rrrrrrrrrrrrrrrrrrrrrrrrrrrrrrrrrrrrrrrrrrrrrrrw7:~c z  ",
" x ^tlkkllllllllllllllllllllllllllllllllllllllllllllllllkjl1F z ",
"x (ljddjjjjjjjjjjjjjjjjjjjjjjjjjjjjjjjjjjjjjjjjjjjjjjjjjjdsl3n  ",
" LylflkkllllllllllllllllllllllllllllllllllllllllllllllllklkalO c",
" #lslkllllllllllllllllllllllllllllllllllllllllllllllllllllkjl9M ",
" 3lfklllllllllllllllllllllllllllllllllllllllllllllllllllllkkjlT ",
"N0ljlllllllllllllllllllllllllllllllllllllllllllllllllllllllkdl` ",
"CrljlllllllllllllllllllllllllllllllllllllllllllllllllllllllkslO ",
"CrljllllllllllllllllllllllllllllllllllllllllllllllllllllllllslO ",
"CrljllllllllllllllllllllllllllllllllllllllllllllllllllllllllslO ",
"CrljllllllllllllllllllllllllllllllllllllllllllllllllllllllllslO ",
"CrljllllllllllllllllllllllllllllllllllllllllllllllllllllllllslO ",
"CrljllllllllllllllllllllllllllllllllllllllllllllllllllllllllslO ",
"Crljlllllllllllllll;gggggggggulllllllllllll>ggggggggWlllllllslO ",
"Crljlllllllllllllll2gggggggggHllllllllllll;gggggggggulllllllslO ",
"CrljlllllllllllllllWgggggggg=lllllllllllllugggggggggHlllllllslO ",
"Crljlllllllllllllll=gggggggghlllllllllllllWgggggggg>llllllllslO ",
"CrljllllllllllllllHggggggggg2lllllllllllll=gggggggghllllllllslO ",
"Crljllllllllllllll%ggggggggg;lllllllllllllggggggggg2llllllllslO ",
"Crljllllllllllllll$ggggggggglllllllllllll%gggggggggZllllllllslO ",
"CrljllllllllllllllJggggggggPlllllllllllll$ggggggggglllllllllslO ",
"CrljllllllllllllllgggggggggElllllllllllllJggggggggPlllllllllslO ",
"CrljlllllllllllllZggggggggg%lllllllllllllggggggggg$lllllllllslO ",
"CrljlllllllllllllEggggggggglllllllllllllZggggggggg%lllllllllslO ",
"CrljlllllllllllllPggggggggJlllllllllllllEgggggggggllllllllllslO ",
"Crljlllllllllllll>gggggggg$lllllllllllllhggggggggJllllllllllslO ",
"Crljllllllllllll;ggggggggggggggggggggggggggggggggWllllllllllslO ",
"Crljllllllllllll2ggggggggggggggggggggggggggggggggullllllllllslO ",
"CrljllllllllllllWggggggggggggggggggggggggggggggggHllllllllllslO ",
"Crljllllllllllll=ggggggggggggggggggggggggggggggg>lllllllllllslO ",
"CrljlllllllllllHgggggggggggggggggggggggggggggggghlllllllllllslO ",
"Crljlllllllllll%gggggggggggggggggggggggggggggggg2lllllllllllslO ",
"Crljlllllllll+l$ggggggggggggggggggggggggggggggggZlllllllllllslO ",
"CrljlllllllllblJggggggggPlllllllllllll$gggggggggllllllllllllslO ",
"Crljllllllll+l+gggggggggElllllllllll+lJggggggggP]lllllllllllslO ",
"Crljlllllllll+Zggggggggg%llllllllllYYlggggggggg@YlllllllllllslO ",
"CrljllllllllllEggggggggglllllllllll++Zggggggggg4+lllllllllllslO ",
"CrljllllllllllPggggggggJlllllllllllllEgggggggggYllllllllllllslO ",
"Crljllllllllll>gggggggg$lllllllllllllhggggggggJ+llllllllllllslO ",
"Crljlllllllll;gggggggggulllllllllllll>ggggggggWlllllllllllllslO ",
"Crljlllllllll2gggggggggHllllllllllll;gggggggggelllllllllllllslO ",
"CrljlllllllllWgggggggg=lllllllllllllugggggggggHlllllllllllllslO ",
"Crljlllllllll=gggggggghlllllllllllllWgggggggg>llllllllllllllslO ",
"CrljllllllllHggggggggg2lllllllllllll=gggggggghllllllllllllllslO ",
"Crljllllllll%ggggggggg;lllllllllllllggggggggg2llllllllllllllslO ",
"Crljllllllll$gggggggggllll++lllllll%gggggggggZllllllllllllllslO ",
"CrljllllllllJggggggggPlllllYYYlllll$ggggggggglllllllllllllllslO ",
"CrljllllllllgggggggggElllllllllllllJggggggggPlllllllllllllllslO ",
"CrljlllllllZggggggggg%lllllllllllllggggggggg$lllllllllllllllslO ",
"CrljllllllllllllllllllllllllllllllllllllllllllllllllllllllllslO ",
"CrljllllllllllllllllllllllllllllllllllllllllllllllllllllllllslO ",
"CrljllllllllllllllllllllllllllllllllllllllllllllllllllllllllslO ",
"CrljllllllllllllllllllllllllllllllllllllllllllllllllllllllllslO ",
"CrljllllllllllllllllllllllllllllllllllllllllllllllllllllllllslO ",
"Vqljlllllllllllllllllllllllllllllllllllllllllllllllllllllllkslo ",
" 5lfkllllllllllllllllllllllllllllllllllllllllllllllllllllllkdl) ",
" *ldklllllllllllllllllllllllllllllllllllllllllllllllllllllkkjlI ",
" Rlfkkkllllllllllllllllllllllllllllllllllllllllllllllllllkldl6  ",
"z -lpjkklllllllllllllllllllllllllllllllllllllllllllllllkkkdflQ x",
"z D6ljfsssssssssssssssssssssssssssssssssssssssssssssssssdklk_ x ",
" z B&ilkkllllllllllllllllllllllllllllllllllllllllllllllkls<U x  ",
"  zz G!.OOOOOOOOOOOOOOOOOOOOOOOOOOOOOOOOOOOOOOOOOOOOOOOX/K  x   ",
"   zc                                                     xx    "
};
